<svg id="Layer_3" enable-background="new 0 0 64 64" height="512" viewBox="0 0 64 64" width="512" xmlns="http://www.w3.org/2000/svg"><path d="m32 34h20c5.523 0 10-4.477 10-10s-4.477-10-10-10c-1.831 0-3.542.5-5.018 1.36.003-.121.018-.239.018-.36 0-7.18-5.82-13-13-13-6.238 0-11.445 4.396-12.705 10.258-1.241-.792-2.712-1.258-4.295-1.258-4.418 0-8 3.582-8 8 0 .341.028.674.07 1.004-.024-.001-.047-.004-.07-.004-3.866 0-7 3.134-7 7 0 1.959.805 3.73 2.101 5" fill="#a8b0bc"/><path d="m20.5 27c12.274 0 22.734-4.901 26.747-11.773-.087.047-.18.083-.265.133.003-.121.018-.239.018-.36 0-7.18-5.82-13-13-13-6.238 0-11.445 4.396-12.705 10.258-1.241-.792-2.712-1.258-4.295-1.258-4.418 0-8 3.582-8 8 0 .341.028.674.07 1.004-.024-.001-.047-.004-.07-.004-2.485 0-4.661 1.298-5.904 3.249 4.815 2.35 10.849 3.751 17.404 3.751z" fill="#c1c8d1"/><g fill="#8892a0"><path d="m50 41c0 1.657-1.343 3-3 3h-24c-1.657 0-3-1.343-3-3 0-1.657-1.343-3-3-3h-12c-1.657 0-3-1.343-3-3 0-1.657 1.343-3 3-3h24c1.657 0 3 1.343 3 3 0 1.657 1.343 3 3 3h12c1.657 0 3 1.343 3 3z"/><path d="m30 59c0 1.657-1.343 3-3 3h-11c-1.657 0-3-1.343-3-3 0-1.657-1.343-3-3-3h-5c-1.657 0-3-1.343-3-3 0-1.657 1.343-3 3-3h11c1.657 0 3 1.343 3 3 0 1.657 1.343 3 3 3h5c1.657 0 3 1.343 3 3z"/><path d="m62 59c0 1.657-1.343 3-3 3h-11c-1.657 0-3-1.343-3-3 0-1.657-1.343-3-3-3h-5c-1.657 0-3-1.343-3-3 0-1.657 1.343-3 3-3h11c1.657 0 3 1.343 3 3 0 1.657 1.343 3 3 3h5c1.657 0 3 1.343 3 3z"/></g></svg>