<?xml version="1.0"?>
<svg xmlns="http://www.w3.org/2000/svg" id="Layer_1" enable-background="new 0 0 503.999 503.999" height="512px" viewBox="0 0 503.999 503.999" width="512px" class=""><g><g fill="#5989b3"><path d="m307.999 407.999c-4.418 0-8-3.582-8-8v-112c0-4.418 3.582-8 8-8s8 3.582 8 8v112c0 4.418-3.581 8-8 8z" data-original="#5989B3" class="" style="fill:#64AEEE" data-old_color="#5989B3"/><path d="m243.999 503.999c-4.419 0-8-3.582-8-8 0-13.233-10.767-24-24-24-4.419 0-8-3.582-8-8s3.581-8 8-8c8.997 0 17.311 2.986 24 8.019v-144.019c0-4.418 3.581-8 8-8s8 3.582 8 8v176c0 4.418-3.581 8-8 8z" data-original="#5989B3" class="" style="fill:#64AEEE" data-old_color="#5989B3"/><path d="m371.999 503.999c-4.418 0-8-3.582-8-8v-176c0-4.418 3.582-8 8-8s8 3.582 8 8v144.019c6.69-5.032 15.003-8.019 24-8.019 4.418 0 8 3.582 8 8s-3.582 8-8 8c-13.233 0-24 10.767-24 24 0 4.418-3.581 8-8 8z" data-original="#5989B3" class="" style="fill:#64AEEE" data-old_color="#5989B3"/></g><circle cx="307.999" cy="463.999" fill="#c2e3ff" r="32" data-original="#C2E3FF" class="active-path" style="fill:#D6ECFF" data-old_color="#c2e3ff"/><circle cx="147.999" cy="463.999" fill="#c2e3ff" r="32" data-original="#C2E3FF" class="active-path" style="fill:#D6ECFF" data-old_color="#c2e3ff"/><circle cx="467.999" cy="463.999" fill="#c2e3ff" r="32" data-original="#C2E3FF" class="active-path" style="fill:#D6ECFF" data-old_color="#c2e3ff"/><path d="m332.019 63.999c-33.856 0-64.758 16.245-84.1 42.79-46.021-13.234-91.92 21.386-91.92 69.21-28.21 0-51.55 20.86-55.43 48h-40.57c-30.93 0-56-25.07-56-56s25.07-56 56-56c0-47.908 45.995-82.416 91.92-69.21 47.793-65.595 148.96-53.523 180.1 21.21z" fill="#5989b3" data-original="#5989B3" class="" style="fill:#64AEEE" data-old_color="#5989b3"/><path d="m427.999 287.999h-272c-30.93 0-56-25.07-56-56s25.07-56 56-56c0-47.879 45.957-82.42 91.92-69.21 52.411-71.933 165.158-48.806 185.34 37.399 37.311 2.69 66.74 33.82 66.74 71.811 0 39.759-32.24 72-72 72z" fill="#add9ff" data-original="#ADD9FF" class=""/><path d="m317.099 38.889c-46.079-37.029-114.105-28.24-149.18 19.9-46.025-13.228-91.92 21.386-91.92 69.21-45.06 0-70.917 50.225-46.779 86.779-15.201-10.01-25.221-27.219-25.221-46.779 0-30.93 25.07-56 56-56 0-47.879 45.957-82.42 91.92-69.21 40.37-55.407 122.24-57.319 165.18-3.9z" fill="#436786" data-original="#436786" class="" style="fill:#5989B3" data-old_color="#436786"/><path d="m413.099 102.889c-46.079-37.029-114.105-28.24-149.18 19.899-46.025-13.228-91.92 21.386-91.92 69.21-45.06 0-70.917 50.225-46.779 86.779-15.201-10.01-25.221-27.219-25.221-46.779 0-30.93 25.07-56 56-56 0-47.879 45.957-82.42 91.92-69.21 40.37-55.406 122.24-57.318 165.18-3.899z" fill="#d6ecff" data-original="#D6ECFF" class="" style="fill:#D6ECFF"/><circle cx="139.999" cy="255.999" fill="#d6ecff" r="8" data-original="#D6ECFF" class="" style="fill:#D6ECFF"/><circle cx="127.999" cy="243.999" fill="#d6ecff" r="4" data-original="#D6ECFF" class="" style="fill:#D6ECFF"/><circle cx="43.999" cy="191.999" fill="#436786" r="8" data-original="#436786" class="" style="fill:#5989B3" data-old_color="#436786"/><circle cx="31.999" cy="179.999" fill="#436786" r="4" data-original="#436786" class="" style="fill:#5989B3" data-old_color="#436786"/></g> </svg>
