<?xml version="1.0" encoding="iso-8859-1"?>
<!-- Generator: Adobe Illustrator 19.0.0, SVG Export Plug-In . SVG Version: 6.00 Build 0)  -->
<svg version="1.1" id="Capa_1" xmlns="http://www.w3.org/2000/svg" xmlns:xlink="http://www.w3.org/1999/xlink" x="0px" y="0px"
	 viewBox="0 0 512 512" style="enable-background:new 0 0 512 512;" xml:space="preserve">
<path style="fill:#8DF4FF;" d="M512,224.185c0,55.74-45.35,101.09-101.09,101.09H89.88c-49.56,0-89.88-40.32-89.88-89.89
	c0-49.56,40.32-89.88,89.88-89.88c1.22,0,2.45,0.03,3.67,0.08c7.17-30.58,23.83-58.35,47.75-79.23
	c27.49-23.99,62.73-37.2,99.25-37.2c5.21,0,10.36,0.27,15.45,0.79c57.14,5.82,106.03,43.61,126.03,97.32
	c9.3-2.78,18.95-4.18,28.88-4.18C466.65,123.085,512,168.435,512,224.185z"/>
<g>
	<path style="fill:#00E0FF;" d="M109.581,434.961c-8.284,0-15-6.716-15-15v-58.703c0-8.284,6.716-15,15-15s15,6.716,15,15v58.703
		C124.581,428.245,117.865,434.961,109.581,434.961z"/>
	<path style="fill:#00E0FF;" d="M241.581,414.961c-8.284,0-15-6.716-15-15v-38.703c0-8.284,6.716-15,15-15s15,6.716,15,15v38.703
		C256.581,408.245,249.865,414.961,241.581,414.961z"/>
</g>
<path style="fill:#009AF2;" d="M308.93,434.851c-8.284,0-15-6.716-15-15v-58.703c0-8.284,6.716-15,15-15s15,6.716,15,15v58.703
	C323.93,428.135,317.214,434.851,308.93,434.851z"/>
<path style="fill:#00E0FF;" d="M176.576,482.845c-8.284,0-15-6.716-15-15v-63.697c0-8.284,6.716-15,15-15s15,6.716,15,15v63.697
	C191.576,476.13,184.861,482.845,176.576,482.845z"/>
<path style="fill:#009AF2;" d="M377.117,482.845c-8.284,0-15-6.716-15-15v-63.697c0-8.284,6.716-15,15-15s15,6.716,15,15v63.697
	C392.117,476.13,385.402,482.845,377.117,482.845z"/>
<path style="fill:#00E0FF;" d="M512,224.185c0,55.74-45.35,101.09-101.09,101.09H256V29.945c57.14,5.82,106.03,43.61,126.03,97.32
	c9.3-2.78,18.95-4.18,28.88-4.18C466.65,123.085,512,168.435,512,224.185z"/>
<g>
</g>
<g>
</g>
<g>
</g>
<g>
</g>
<g>
</g>
<g>
</g>
<g>
</g>
<g>
</g>
<g>
</g>
<g>
</g>
<g>
</g>
<g>
</g>
<g>
</g>
<g>
</g>
<g>
</g>
</svg>
