<?xml version="1.0"?>
<svg xmlns="http://www.w3.org/2000/svg" height="512px" viewBox="-8 0 511 512" width="512px" class=""><g><path d="m458.1875 6.542969-4.46875-6.542969h-453.21875l51.96875 28.1875c59.796875 32.429688 93.929688 66.050781 104.347656 102.78125 9.230469 32.554688.160156 66.007812-9.441406 101.425781-10.636719 39.230469-21.636719 79.796875-9.585938 123.644531 6.550782 23.820313 19.128907 45.832032 38.453126 67.292969 20.988281 23.304688 49.378906 45.355469 86.785156 67.410157l40.386718 21.257812-19.0625-40.28125c-21.933593-49.269531-21.417968-89.363281 1.617188-126.171875 21.125-33.757813 58.949219-61.222656 95.53125-87.785156 39.746094-28.859375 80.847656-58.707031 101.023438-97.5 23.449218-45.09375 15.492187-95.375-24.335938-153.71875zm0 0" fill="#00aadf" data-original="#00AADF" class="active-path" style="fill:#00AADF"/><path d="m458.1875 6.542969-4.46875-6.542969h-208.652344v479.691406c5.746094 3.6875 11.71875 7.367188 17.960938 11.050782l40.386718 21.257812-19.0625-40.28125c-21.933593-49.269531-21.417968-89.363281 1.617188-126.171875 21.125-33.757813 58.949219-61.222656 95.53125-87.785156 39.746094-28.859375 80.847656-58.707031 101.023438-97.5 23.449218-45.09375 15.492187-95.375-24.335938-153.71875zm0 0" fill="#007fc5" data-original="#007FC5" class="" style="fill:#007FC5"/><path d="m203.527344 291.339844h194.042968v30h-194.042968zm0 0" fill="#00d7df" data-original="#00D7DF" class=""/><path d="m245.066406 291.339844h152.503906v30h-152.503906zm0 0" fill="#00b6be" data-original="#00B6BE" class=""/><path d="m64.105469 160.429688h278.84375v30h-278.84375zm0 0" fill="#00d7df" data-original="#00D7DF" class=""/><path d="m245.066406 160.429688h97.882813v30h-97.882813zm0 0" fill="#00b6be" data-original="#00B6BE" class=""/><path d="m14.101562 100.425781h278.84375v30h-278.84375zm0 0" fill="#545ac3" data-original="#545AC3" class="" data-old_color="#545ac3" style="fill:#676EE5"/><path d="m245.066406 100.425781h47.878906v30h-47.878906zm0 0" fill="#404aa2" data-original="#404AA2" class="" style="fill:#5B69E3" data-old_color="#404aa2"/><path d="m245.925781 351.34375h194.046875v30h-194.046875zm0 0" fill="#545ac3" data-original="#545AC3" class="" data-old_color="#545ac3" style="fill:#676EE5"/><path d="m245.925781 351.34375h194.046875v30h-194.046875zm0 0" fill="#404aa2" data-original="#404AA2" class="" style="fill:#5B69E3" data-old_color="#404aa2"/></g> </svg>
