<svg height="512" viewBox="0 0 192 192" width="512" xmlns="http://www.w3.org/2000/svg" xmlns:xlink="http://www.w3.org/1999/xlink"><linearGradient id="New_Gradient_Swatch_1" gradientUnits="userSpaceOnUse" x1="74.094" x2="165.398" y1="137.441" y2="60.745"><stop offset="0" stop-color="#34cdfa"/><stop offset="1" stop-color="#e8d9f1"/></linearGradient><linearGradient id="New_Gradient_Swatch_1-2" x1="41.865" x2="133.169" xlink:href="#New_Gradient_Swatch_1" y1="99.073" y2="22.378"/><g id="_14-wind" data-name="14-wind"><g id="Flat"><path d="m112 32a32 32 0 0 0 -64 0h16a16 16 0 1 1 16 16h-48v16h48a32.036 32.036 0 0 0 32-32z" fill="#99e6fd"/><path d="m128 128h-64v16h64a16 16 0 1 1 -16 16h-16a32 32 0 1 0 32-32z" fill="#ccf2fe"/><path d="m152 32a40.045 40.045 0 0 0 -40 40h16a24 24 0 1 1 24 24h-64v16h64a40 40 0 0 0 0-80z" fill="url(#New_Gradient_Swatch_1)"/><path d="m0 96h72v16h-72z" fill="url(#New_Gradient_Swatch_1-2)"/><path d="m16 128h32v16h-32z" fill="#ccf2fe"/></g></g></svg>